<?xml version="1.0" standalone="no"?>
<!DOCTYPE svg PUBLIC "-//W3C//DTD SVG 20010904//EN"
 "http://www.w3.org/TR/2001/REC-SVG-20010904/DTD/svg10.dtd">
<svg version="1.0" xmlns="http://www.w3.org/2000/svg"
 width="512.000000pt" height="512.000000pt" viewBox="0 0 512.000000 512.000000"
 preserveAspectRatio="xMidYMid meet">

<g transform="translate(0.000000,512.000000) scale(0.100000,-0.100000)"
fill="#000000" stroke="none">
<path d="M927 5105 c-60 -22 -114 -71 -141 -128 -14 -29 -141 -378 -282 -777
-234 -659 -258 -731 -258 -790 -1 -53 4 -74 28 -118 52 -93 122 -131 249 -132
l77 0 0 -72 c1 -119 48 -198 145 -244 48 -23 59 -24 281 -24 l230 0 55 28 c60
30 112 91 129 150 5 20 10 65 10 100 l0 62 1110 0 1110 0 0 -62 c0 -35 5 -80
10 -100 16 -57 69 -119 129 -150 l53 -28 232 0 c222 0 233 1 281 24 97 46 144
125 145 244 l0 72 78 0 c126 1 196 39 248 132 24 44 29 65 28 118 0 59 -24
132 -263 805 -145 407 -274 759 -287 782 -14 23 -39 54 -57 67 -78 59 25 56
-1711 55 -1339 0 -1597 -3 -1629 -14z m498 -167 c-2 -7 -20 -84 -41 -170 l-36
-158 -259 0 -258 0 35 98 c74 208 76 212 103 227 36 19 463 22 456 3z m694
-25 c0 -57 -25 -293 -31 -298 -3 -3 -131 -4 -284 -3 l-280 3 40 168 40 167
258 0 258 0 -1 -37z m721 -135 l16 -168 -296 0 -296 0 17 168 c9 92 17 168 18
170 0 1 119 1 264 0 l262 -3 15 -167z m716 5 l40 -168 -280 -3 c-153 -1 -281
0 -284 3 -6 5 -31 241 -31 298 l-1 37 258 0 258 0 40 -167z m593 152 c29 -15
30 -15 105 -227 l35 -98 -258 0 -259 0 -36 158 c-21 86 -39 163 -41 170 -7 19
416 17 454 -3z m-2849 -507 c0 -7 -21 -104 -47 -215 l-48 -203 -293 0 c-231 0
-293 3 -289 13 2 6 34 96 71 198 36 103 69 194 72 203 5 14 37 16 270 16 204
0 264 -3 264 -12z m770 -15 c0 -16 -7 -112 -17 -215 l-17 -188 -329 0 c-308 0
-328 1 -323 18 7 23 96 402 96 408 0 2 133 4 295 4 l295 0 0 -27z m804 -5 c7
-41 36 -348 36 -377 l0 -21 -350 0 -350 0 0 21 c0 29 29 336 36 377 l5 32 309
0 309 0 5 -32z m766 28 c0 -6 89 -385 96 -408 5 -17 -15 -18 -323 -18 l-329 0
-17 188 c-10 103 -17 199 -17 215 l0 27 295 0 c162 0 295 -2 295 -4z m714 -12
c3 -9 36 -100 72 -203 37 -102 69 -192 71 -198 4 -10 -58 -13 -289 -13 l-293
0 -48 203 c-26 111 -47 208 -47 215 0 9 60 12 264 12 233 0 265 -2 270 -16z
m-3194 -596 c-1 -7 -27 -121 -58 -253 l-58 -240 -291 -3 -291 -2 -26 31 c-14
17 -26 37 -26 44 0 11 102 309 139 408 l11 27 300 0 c234 0 300 -3 300 -12z
m856 -30 c-3 -24 -13 -117 -21 -208 -8 -91 -18 -186 -21 -212 l-6 -48 -374 0
c-206 0 -374 2 -374 4 0 6 98 420 111 469 l10 37 340 0 340 0 -5 -42z m914 36
c0 -14 40 -432 45 -466 l5 -38 -420 0 -420 0 5 38 c5 34 45 452 45 466 0 3
167 6 370 6 204 0 370 -3 370 -6z m859 -31 c13 -49 111 -463 111 -469 0 -2
-168 -4 -374 -4 l-374 0 -6 48 c-3 26 -13 121 -21 212 -8 91 -18 184 -21 208
l-5 42 340 0 340 0 10 -37z m843 -158 c86 -243 86 -243 53 -283 l-27 -32 -291
2 -291 3 -58 240 c-31 132 -57 246 -58 253 0 10 64 12 302 10 l302 -3 68 -190z
m-3352 -545 c0 -51 -4 -65 -25 -85 -24 -25 -25 -25 -230 -25 -205 0 -206 0
-230 25 -21 20 -25 34 -25 85 l0 60 255 0 255 0 0 -60z m3070 0 c0 -51 -4 -65
-25 -85 -24 -25 -25 -25 -230 -25 -205 0 -206 0 -230 25 -21 20 -25 34 -25 85
l0 60 255 0 255 0 0 -60z"/>
<path d="M1003 2642 c-13 -2 -32 -15 -43 -29 -18 -23 -20 -40 -20 -179 0 -147
-1 -154 -24 -181 l-24 -28 -354 -5 c-338 -5 -355 -6 -393 -27 -47 -25 -95 -74
-121 -123 -18 -32 -19 -63 -19 -405 0 -361 1 -371 22 -411 52 -97 121 -137
245 -142 84 -4 87 -5 98 -33 7 -16 31 -46 54 -67 130 -120 330 -83 402 73 102
219 -129 446 -343 337 -43 -23 -107 -88 -118 -121 -6 -19 -14 -21 -71 -21 -59
0 -68 3 -95 29 l-29 29 0 327 0 327 29 29 29 29 335 0 c361 0 382 3 451 55 18
14 46 49 62 77 28 52 29 57 32 226 3 142 1 177 -12 196 -17 26 -59 44 -93 38z
m-348 -1387 c52 -51 16 -145 -55 -145 -40 0 -90 47 -90 85 0 16 12 38 29 56
38 37 82 39 116 4z"/>
<path d="M4062 2634 c-50 -21 -54 -39 -50 -227 3 -168 4 -173 32 -225 16 -28
44 -63 62 -77 69 -52 90 -55 451 -55 l335 0 29 -29 29 -29 0 -327 0 -327 -29
-29 c-27 -26 -36 -29 -95 -29 -57 0 -65 2 -71 21 -4 12 -23 39 -43 61 -122
135 -333 109 -414 -51 -49 -96 -32 -218 40 -294 64 -68 182 -95 269 -62 54 21
126 83 143 124 11 28 14 29 98 33 124 5 193 45 245 142 21 40 22 50 22 411 0
342 -1 373 -19 405 -26 49 -74 98 -121 123 -38 21 -55 22 -393 27 l-354 5 -24
28 c-23 27 -24 34 -24 181 0 138 -2 156 -20 178 -24 31 -59 39 -98 22z m519
-1383 c17 -18 29 -40 29 -56 0 -38 -50 -85 -90 -85 -44 0 -80 39 -80 85 0 79
84 112 141 56z"/>
<path d="M2473 2282 c-10 -9 -67 -86 -127 -170 l-109 -152 -468 0 c-449 0
-471 -1 -524 -21 -77 -29 -154 -102 -191 -181 l-29 -63 0 -500 0 -500 29 -62
c37 -81 112 -153 189 -181 56 -21 73 -22 452 -22 217 0 395 -3 395 -6 0 -3
-20 -81 -45 -174 -49 -181 -49 -202 -3 -234 12 -9 36 -16 52 -16 34 0 36 2
246 248 l155 182 492 0 c472 0 495 1 547 21 69 25 143 91 181 161 25 45 30 67
33 144 l4 91 79 6 c138 9 232 85 258 207 14 65 14 205 0 270 -26 123 -119 196
-262 207 l-77 6 0 73 c0 137 -70 253 -188 311 -51 25 -70 29 -189 33 l-131 5
85 115 c78 105 84 117 79 150 -11 72 3 70 -482 70 -402 0 -435 -1 -451 -18z
m669 -164 c-43 -55 -391 -528 -400 -545 -18 -33 -14 -59 12 -90 l24 -28 180
-5 180 -5 -414 -485 c-430 -503 -459 -535 -450 -510 25 70 196 722 196 746 0
18 -9 42 -19 55 -19 24 -22 24 -254 29 l-235 5 267 371 c146 203 283 394 303
422 l38 52 291 0 c232 0 289 -3 281 -12z m-1045 -350 c-8 -13 -98 -140 -201
-282 -199 -278 -208 -296 -167 -347 19 -24 21 -24 283 -29 l264 -5 -58 -215
c-32 -118 -63 -232 -68 -252 l-11 -38 -405 0 c-319 0 -412 3 -437 14 -38 16
-84 66 -95 104 -9 35 -9 919 0 954 11 37 56 88 93 104 23 10 119 13 424 14
l393 0 -15 -22z m1410 -4 c15 -11 38 -36 51 -54 l22 -33 0 -482 0 -482 -22
-33 c-13 -18 -36 -43 -51 -54 -28 -20 -40 -21 -448 -24 l-419 -3 385 451 c341
399 385 454 385 484 0 19 -9 44 -19 57 -19 23 -24 24 -211 29 l-191 5 62 83
62 83 183 -3 c167 -3 185 -5 211 -24z m392 -428 c22 -22 25 -36 29 -113 6
-121 -8 -170 -55 -189 -19 -8 -54 -14 -76 -12 l-42 3 -3 160 c-1 87 0 166 3
173 9 25 113 9 144 -22z"/>
</g>
</svg>
